<svg version="1.1" id="Layer_1" xmlns="http://www.w3.org/2000/svg" xmlns:xlink="http://www.w3.org/1999/xlink" x="0px" y="0px"
	 width="100%" viewBox="0 0 536 465" enable-background="new 0 0 536 465" xml:space="preserve">
<path fill="#000000" opacity="1.000000" stroke="none" 
	d="
M318.000000,466.000000 
	C212.000031,466.000000 106.500053,466.000000 1.000057,466.000000 
	C1.000038,311.000061 1.000038,156.000122 1.000019,1.000140 
	C179.666565,1.000093 358.333130,1.000093 536.999756,1.000047 
	C536.999878,155.999863 536.999878,310.999725 536.999939,465.999786 
	C464.166656,466.000000 391.333344,466.000000 318.000000,466.000000 
M198.523056,400.171326 
	C210.566650,400.171326 222.610245,400.171326 234.911102,400.171326 
	C234.911102,394.924133 234.902969,390.614319 234.912415,386.304565 
	C234.979874,355.542023 235.050903,324.779510 236.041016,294.017181 
	C244.361618,293.981415 252.684479,294.057648 261.002380,293.888367 
	C283.647278,293.427429 305.695679,289.703156 326.630157,280.813049 
	C332.009430,278.528656 336.894287,275.080017 342.684570,271.863831 
	C346.250641,270.572968 349.795288,269.218842 353.386230,268.001282 
	C380.793488,258.708557 403.322144,243.034454 418.287628,217.768188 
	C430.805237,196.634720 434.151123,173.459259 432.118652,149.382919 
	C429.353302,116.625206 415.894104,89.159645 390.045074,68.455582 
	C364.503021,47.997410 334.588623,38.744205 302.381195,38.209633 
	C252.087341,37.374866 201.771713,37.850616 151.465286,37.786331 
	C150.322952,37.784870 149.180389,37.964970 147.167221,38.133095 
	C147.167221,43.687527 147.167221,49.139957 146.204330,54.589634 
	C134.253967,54.589634 122.303604,54.589634 110.390617,54.589634 
	C110.390617,175.666748 110.390617,296.161530 110.390617,416.849792 
	C139.457443,416.849792 168.219559,416.849792 197.539459,416.849792 
	C197.539459,411.244476 197.539459,405.786926 198.523056,400.171326 
z"/>
<path fill="#4682B4" opacity="1.000000" stroke="none" 
	d="
M147.167206,54.592384 
	C147.167221,49.139957 147.167221,43.687527 147.167221,38.133095 
	C149.180389,37.964970 150.322952,37.784870 151.465286,37.786331 
	C201.771713,37.850616 252.087341,37.374866 302.381195,38.209633 
	C334.588623,38.744205 364.503021,47.997410 390.045074,68.455582 
	C415.894104,89.159645 429.353302,116.625206 432.118652,149.382919 
	C434.151123,173.459259 430.805237,196.634720 418.287628,217.768188 
	C403.322144,243.034454 380.793488,258.708557 353.386230,268.001282 
	C349.795288,269.218842 346.250641,270.572968 341.927216,271.909943 
	C340.181976,272.026459 339.190216,272.062103 338.206818,272.172546 
	C323.852081,273.784729 309.533600,276.175690 295.135773,276.832764 
	C277.021667,277.659454 258.842896,277.070282 240.692047,277.091492 
	C238.913071,277.093597 237.134079,277.091797 235.120789,277.091797 
	C235.120789,283.115784 235.120789,288.566376 235.120789,294.016968 
	C235.050903,324.779510 234.979874,355.542023 234.912415,386.304565 
	C234.902969,390.614319 234.911102,394.924133 234.911102,400.171326 
	C222.610245,400.171326 210.566650,400.171326 197.597427,400.181519 
	C180.397720,400.191711 164.123642,400.191711 147.533752,400.191711 
	C147.533752,397.319946 147.533752,395.170990 147.533752,393.022064 
	C147.533783,282.198242 147.535690,171.374405 147.518524,60.550579 
	C147.518219,58.564499 147.289413,56.578449 147.167206,54.592384 
M298.652771,209.412064 
	C311.486237,208.561279 323.276245,205.093994 332.331818,195.333618 
	C342.463776,184.413071 344.554352,170.975067 343.964752,156.767456 
	C342.799286,128.683853 325.833374,104.695030 290.691986,105.069260 
	C273.703278,105.250175 256.711029,105.093788 239.720413,105.110313 
	C238.267212,105.111725 236.814178,105.265671 235.122009,105.362419 
	C235.122009,111.101768 235.122009,116.553360 234.982239,122.932739 
	C234.982239,151.759796 234.982239,180.586853 234.982239,209.792160 
	C250.789734,209.792160 265.885376,209.845871 280.980255,209.764389 
	C286.612976,209.733978 292.244019,209.388000 298.652771,209.412064 
z"/>
<path fill="#FBFC02" opacity="1.000000" stroke="none" 
	d="
M146.685760,54.591011 
	C147.289413,56.578449 147.518219,58.564499 147.518524,60.550579 
	C147.535690,171.374405 147.533783,282.198242 147.533752,393.022064 
	C147.533752,395.170990 147.533752,397.319946 147.533752,400.191711 
	C164.123642,400.191711 180.397720,400.191711 197.105621,400.260559 
	C197.539459,405.786926 197.539459,411.244476 197.539459,416.849792 
	C168.219559,416.849792 139.457443,416.849792 110.390617,416.849792 
	C110.390617,296.161530 110.390617,175.666748 110.390617,54.589634 
	C122.303604,54.589634 134.253967,54.589634 146.685760,54.591011 
z"/>
<path fill="#F9FA02" opacity="1.000000" stroke="none" 
	d="
M235.580902,294.017090 
	C235.120789,288.566376 235.120789,283.115784 235.120789,277.091797 
	C237.134079,277.091797 238.913071,277.093597 240.692047,277.091492 
	C258.842896,277.070282 277.021667,277.659454 295.135773,276.832764 
	C309.533600,276.175690 323.852081,273.784729 338.206818,272.172546 
	C339.190216,272.062103 340.181976,272.026459 341.588074,272.061157 
	C336.894287,275.080017 332.009430,278.528656 326.630157,280.813049 
	C305.695679,289.703156 283.647278,293.427429 261.002380,293.888367 
	C252.684479,294.057648 244.361618,293.981415 235.580902,294.017090 
z"/>
<path fill="#010101" opacity="1.000000" stroke="none" 
	d="
M297.875824,209.185913 
	C292.244019,209.388000 286.612976,209.733978 280.980255,209.764389 
	C265.885376,209.845871 250.789734,209.792160 234.982239,209.792160 
	C234.982239,180.586853 234.982239,151.759796 235.511978,122.469086 
	C243.849518,122.068336 251.679779,121.774391 259.460693,122.264259 
	C279.033478,123.496529 293.871399,132.582336 301.411011,150.931503 
	C309.511597,170.645859 309.424713,190.399414 297.875824,209.185913 
z"/>
<path fill="#FDFD01" opacity="1.000000" stroke="none" 
	d="
M298.264282,209.298981 
	C309.424713,190.399414 309.511597,170.645859 301.411011,150.931503 
	C293.871399,132.582336 279.033478,123.496529 259.460693,122.264259 
	C251.679779,121.774391 243.849518,122.068336 235.581863,122.005188 
	C235.122009,116.553360 235.122009,111.101768 235.122009,105.362419 
	C236.814178,105.265671 238.267212,105.111725 239.720413,105.110313 
	C256.711029,105.093788 273.703278,105.250175 290.691986,105.069260 
	C325.833374,104.695030 342.799286,128.683853 343.964752,156.767456 
	C344.554352,170.975067 342.463776,184.413071 332.331818,195.333618 
	C323.276245,205.093994 311.486237,208.561279 298.264282,209.298981 
z"/>
</svg>